<svg width="40" height="40" viewBox="0 0 40 40" fill="none" xmlns="http://www.w3.org/2000/svg">
<path d="M5.53604 18.3751L8.65982 15.2522C9.28885 14.6206 9.28885 13.5929 8.65609 12.9573C8.34921 12.6532 7.94306 12.4854 7.51114 12.4854C7.07903 12.4854 6.67288 12.6533 6.36591 12.9597L0.483752 18.8411C0.331315 18.9902 0.209804 19.1693 0.11922 19.3871C0.04009 19.5837 0 19.7897 0 19.9969C0 20.2058 0.04009 20.4111 0.124088 20.6162C0.207704 20.8208 0.329311 21.0013 0.476021 21.1418L6.36591 27.0329C6.67116 27.3396 7.07894 27.508 7.51114 27.508C7.94306 27.508 8.35141 27.3396 8.65982 27.0318C9.2877 26.4008 9.2877 25.3742 8.65867 24.7396L5.53604 21.617H10.9734V18.3746H5.53604V18.3751Z" fill="#AFAFAF"/>
<path d="M34.5977 5.48535H16.3742C13.3949 5.48535 10.9727 7.90937 10.9727 10.8881V11.1552V18.375H26.9589C27.8531 18.375 28.5816 19.1023 28.5816 19.9973C28.5816 20.89 27.8537 21.618 26.9589 21.618H10.9727V24.3486V26.7467V29.1122C10.9727 32.0903 13.3949 34.5143 16.3742 34.5143H34.5977C37.5771 34.5143 39.9993 32.0903 39.9993 29.1122V10.8881C39.9993 7.90927 37.5771 5.48535 34.5977 5.48535Z" fill="#AFAFAF"/>
</svg>
