<svg width="34" height="34" viewBox="0 0 34 34" fill="none" xmlns="http://www.w3.org/2000/svg">
<path d="M17 0C7.6262 0 0 7.6262 0 17C0 21.1055 1.46313 24.8755 3.89527 27.8165C3.9015 27.825 3.90207 27.8358 3.90887 27.8437C5.66497 29.9614 7.87043 31.5849 10.3281 32.6338C10.3564 32.6457 10.3842 32.6587 10.4125 32.6706C10.6114 32.7545 10.8126 32.8321 11.0143 32.908C11.0936 32.9381 11.173 32.9687 11.2534 32.9976C11.4274 33.0599 11.6025 33.1188 11.7787 33.1755C11.8915 33.2118 12.0043 33.2475 12.1182 33.2815C12.274 33.3279 12.4304 33.3727 12.5879 33.4152C12.7262 33.4526 12.8656 33.4872 13.005 33.5206C13.1461 33.5546 13.2878 33.5886 13.43 33.6186C13.5887 33.6526 13.749 33.6827 13.91 33.7121C14.0392 33.7359 14.1678 33.7609 14.2981 33.7818C14.4766 33.8107 14.6563 33.8334 14.8365 33.8566C14.9526 33.8714 15.0682 33.8884 15.185 33.9008C15.389 33.9224 15.5947 33.9377 15.8009 33.9518C15.8967 33.9586 15.9919 33.9688 16.0882 33.9739C16.3891 33.9909 16.6934 34 17 34C17.3066 34 17.6109 33.9909 17.9129 33.9751C18.0092 33.97 18.1044 33.9598 18.2002 33.953C18.4065 33.9382 18.6122 33.9235 18.8162 33.902C18.9329 33.8895 19.0485 33.8725 19.1647 33.8578C19.3449 33.8345 19.5245 33.8119 19.703 33.783C19.8328 33.762 19.962 33.7371 20.0912 33.7133C20.2515 33.6838 20.4119 33.6538 20.5711 33.6198C20.7134 33.5892 20.8545 33.5557 20.9961 33.5217C21.1355 33.4877 21.2749 33.4532 21.4132 33.4163C21.5707 33.3744 21.7271 33.3291 21.883 33.2826C21.9969 33.2486 22.1096 33.2129 22.2224 33.1766C22.3986 33.12 22.5737 33.061 22.7477 32.9987C22.8276 32.9698 22.9069 32.9392 22.9868 32.9092C23.1891 32.8332 23.3897 32.755 23.5886 32.6717C23.617 32.6598 23.6447 32.6468 23.6731 32.6349C26.1301 31.586 28.3362 29.9625 30.0923 27.8449C30.0991 27.8369 30.0996 27.8256 30.1059 27.8177C32.5369 24.8755 34 21.1055 34 17C34 7.6262 26.3738 0 17 0ZM23.889 31.2913C23.8805 31.2953 23.8725 31.2998 23.864 31.3038C23.6617 31.4013 23.456 31.4931 23.2486 31.5826C23.2016 31.6024 23.1551 31.6228 23.1081 31.6427C22.9268 31.7186 22.7432 31.7906 22.5584 31.8597C22.4814 31.8886 22.4043 31.9169 22.3267 31.9441C22.1629 32.0025 21.9986 32.0586 21.8325 32.1119C21.7294 32.1447 21.6257 32.1759 21.522 32.2065C21.3747 32.2507 21.2268 32.2932 21.0772 32.3329C20.9514 32.3663 20.8244 32.3969 20.6975 32.4269C20.5643 32.4587 20.4317 32.491 20.2974 32.5193C20.1507 32.5505 20.0028 32.5771 19.8554 32.6037C19.7359 32.6258 19.6169 32.6491 19.4962 32.6683C19.3301 32.6944 19.1624 32.7154 18.9952 32.7363C18.8893 32.7499 18.7839 32.7658 18.6768 32.7771C18.4858 32.7975 18.2931 32.8106 18.101 32.8242C18.0155 32.8298 17.9305 32.8395 17.8438 32.844C17.5633 32.8587 17.2822 32.8667 17 32.8667C16.7178 32.8667 16.4367 32.8587 16.1568 32.844C16.0707 32.8395 15.9857 32.8304 15.8995 32.8242C15.7069 32.8111 15.5148 32.7975 15.3238 32.7771C15.2167 32.7658 15.1113 32.7499 15.0053 32.7363C14.8382 32.7154 14.6704 32.6944 14.5044 32.6683C14.3837 32.6491 14.2647 32.6258 14.1451 32.6037C13.9972 32.5771 13.8493 32.5499 13.7031 32.5193C13.5688 32.491 13.4357 32.4587 13.3031 32.4269C13.1761 32.3963 13.0492 32.3663 12.9234 32.3329C12.7744 32.2932 12.6259 32.2501 12.4786 32.2065C12.3749 32.1759 12.2712 32.1447 12.168 32.1119C12.002 32.0586 11.8371 32.0025 11.6739 31.9441C11.5963 31.9164 11.5192 31.888 11.4421 31.8597C11.2574 31.7906 11.0738 31.7186 10.8925 31.6427C10.8454 31.6234 10.7995 31.603 10.7525 31.5832C10.5451 31.4942 10.3394 31.4018 10.1365 31.3044C10.128 31.3004 10.1201 31.2964 10.1116 31.2919C8.1345 30.3354 6.38803 28.9776 4.9708 27.3286C6.06617 23.2951 9.16697 20.0436 13.1563 18.7499C13.2351 18.798 13.3172 18.8411 13.3983 18.8864C13.4459 18.9131 13.4929 18.9414 13.5411 18.9669C13.7099 19.0564 13.8811 19.1403 14.0562 19.2157C14.1905 19.2746 14.3293 19.3245 14.4676 19.3755C14.4948 19.3851 14.522 19.3959 14.5492 19.4055C15.3176 19.6775 16.1398 19.8333 17 19.8333C17.8602 19.8333 18.6824 19.6775 19.4503 19.4055C19.4775 19.3959 19.5047 19.3851 19.5319 19.3755C19.6701 19.3245 19.809 19.2746 19.9433 19.2157C20.1184 19.1403 20.2895 19.0564 20.4584 18.9669C20.5065 18.9408 20.5536 18.9131 20.6012 18.8864C20.6822 18.8411 20.7649 18.798 20.8443 18.7493C24.8336 20.0436 27.9338 23.2951 29.0298 27.3281C27.6125 28.9765 25.8661 30.3342 23.889 31.2913ZM10.7667 12.4667C10.7667 9.02983 13.5632 6.23333 17 6.23333C20.4368 6.23333 23.2333 9.02983 23.2333 12.4667C23.2333 14.6529 22.0994 16.5767 20.3909 17.6896C20.1677 17.8347 19.9353 17.9645 19.6968 18.0778C19.6684 18.0914 19.6407 18.1056 19.6123 18.1186C17.9713 18.8649 16.0287 18.8649 14.3877 18.1186C14.3593 18.1056 14.331 18.0914 14.3032 18.0778C14.0641 17.9645 13.8323 17.8347 13.6091 17.6896C11.9006 16.5767 10.7667 14.6529 10.7667 12.4667ZM29.8798 26.2497C28.5951 22.4564 25.6643 19.3908 21.9198 17.9344C23.4175 16.5852 24.3667 14.637 24.3667 12.4667C24.3667 8.4048 21.0619 5.1 17 5.1C12.9381 5.1 9.63333 8.4048 9.63333 12.4667C9.63333 14.637 10.5825 16.5852 12.0808 17.9344C8.33623 19.3913 5.40543 22.4564 4.1208 26.2497C2.24343 23.6436 1.13333 20.4499 1.13333 17C1.13333 8.25123 8.25123 1.13333 17 1.13333C25.7488 1.13333 32.8667 8.25123 32.8667 17C32.8667 20.4499 31.7566 23.6436 29.8798 26.2497Z" fill="#BEBEBE"/>
</svg>
