<svg width="34" height="34" viewBox="0 0 34 34" fill="none" xmlns="http://www.w3.org/2000/svg">
<g clip-path="url(#clip0)">
<path d="M2.03197 25.5679H14.867V28.2768H12.801C12.5766 28.2768 12.3946 28.4586 12.3946 28.6833V31.2571C12.3946 31.4809 12.5766 31.6636 12.801 31.6636H21.1991C21.4223 31.6636 21.6055 31.4811 21.6055 31.2571V28.6833C21.6055 28.4587 21.4221 28.2768 21.1991 28.2768H19.1342V25.5679H31.9685C33.0892 25.5679 34.0001 24.6559 34.0001 23.5361V4.36776C34.0001 3.24797 33.0893 2.33594 31.9685 2.33594H2.03197C0.912037 2.33579 0 3.24782 0 4.36776V23.5352C0 24.6558 0.91113 25.5679 2.03197 25.5679ZM13.2075 30.8507V30.3767H20.7927V30.8507H13.2075ZM20.7928 29.5631H13.2075V29.0895H15.2734H18.7278H20.7945L20.7928 29.5631ZM18.3213 28.2768H15.6799V25.5679H18.3213V28.2768ZM2.03197 3.14864H31.9685C32.6398 3.14864 33.1874 3.69553 33.1874 4.36776V21.3002H0.812699V4.36776C0.812699 3.69553 1.35974 3.14864 2.03197 3.14864Z" fill="#BEBEBE"/>
<path d="M6.23198 20.4203C6.34432 20.4203 6.45621 20.3728 6.53695 20.2828L11.9354 14.1772L14.7451 17.0786C14.7476 17.0818 14.7498 17.0818 14.7522 17.0833C14.7547 17.0865 14.7554 17.0896 14.7569 17.0913C14.7823 17.1152 14.8124 17.1294 14.8407 17.1436C14.8561 17.1533 14.8691 17.1652 14.8854 17.1722C14.9343 17.1914 14.9854 17.2023 15.0374 17.2023C15.0894 17.2023 15.1414 17.1914 15.1912 17.1713C15.2072 17.1651 15.2204 17.1516 15.2367 17.1419C15.265 17.1247 15.295 17.1119 15.3203 17.0883C15.3229 17.0866 15.3229 17.0834 15.3251 17.0803C15.3276 17.0786 15.3298 17.0786 15.3322 17.0754L19.5909 12.5902L22.9101 14.3121C22.9167 14.3156 22.9253 14.3145 22.9309 14.3172C22.9846 14.3416 23.0406 14.3579 23.0976 14.3579C23.1627 14.3579 23.2262 14.3376 23.2864 14.3059C23.3032 14.2961 23.3182 14.2806 23.3374 14.2678C23.361 14.25 23.388 14.2368 23.4089 14.2131L28.9632 7.60941C29.1075 7.43779 29.0839 7.18121 28.9123 7.03666C28.7409 6.89257 28.4854 6.91434 28.3394 7.0858L22.9961 13.4403L19.6942 11.7267C19.686 11.7228 19.6774 11.7236 19.672 11.7202C19.6449 11.7084 19.6182 11.7024 19.5879 11.6969C19.5655 11.6918 19.5407 11.6853 19.5179 11.6845C19.4925 11.6838 19.4656 11.6894 19.4394 11.6938C19.4131 11.6977 19.3876 11.7009 19.3623 11.7109C19.3407 11.7187 19.3195 11.7328 19.3012 11.745C19.2757 11.7592 19.2497 11.7739 19.2297 11.7942C19.2226 11.8002 19.2146 11.8017 19.2108 11.8081L15.0326 16.2084L12.2122 13.2962C12.2083 13.2923 12.2027 13.2906 12.1983 13.2876C12.1944 13.2832 12.1927 13.2783 12.1888 13.2752C12.1726 13.2603 12.1524 13.2549 12.1345 13.2436C12.1106 13.228 12.0889 13.2118 12.0627 13.2021C12.0385 13.1931 12.0139 13.1908 11.9889 13.1866C11.9626 13.1823 11.9386 13.176 11.9115 13.176C11.8849 13.1767 11.8587 13.1843 11.8327 13.1899C11.8082 13.1955 11.7848 13.1982 11.7614 13.2086C11.736 13.2192 11.7149 13.2371 11.6912 13.2526C11.6734 13.2646 11.6531 13.2712 11.6368 13.2868C11.6328 13.2907 11.6312 13.2962 11.628 13.3007C11.6236 13.3046 11.6189 13.3062 11.6158 13.3101L5.9264 19.7449C5.77762 19.9128 5.79305 20.1678 5.96133 20.3185C6.04041 20.3869 6.13597 20.4203 6.23198 20.4203Z" fill="#BEBEBE"/>
</g>
<defs>
<clipPath id="clip0">
<rect width="34" height="34" fill="white"/>
</clipPath>
</defs>
</svg>
