<svg width="34" height="34" viewBox="0 0 34 34" fill="none" xmlns="http://www.w3.org/2000/svg">
<g clip-path="url(#clip0)">
<path d="M13.1041 11.3334H2.47908C1.11205 11.3334 0 10.2214 0 8.85408V2.47908C0 1.11205 1.11205 0 2.47908 0H13.1041C14.4714 0 15.5834 1.11205 15.5834 2.47908V8.85408C15.5834 10.2214 14.4714 11.3334 13.1041 11.3334ZM2.47908 2.125C2.28375 2.125 2.125 2.28375 2.125 2.47908V8.85408C2.125 9.04967 2.28375 9.20842 2.47908 9.20842H13.1041C13.2997 9.20842 13.4584 9.04967 13.4584 8.85408V2.47908C13.4584 2.28375 13.2997 2.125 13.1041 2.125H2.47908Z" fill="#BEBEBE"/>
<path d="M13.1041 34.0004H2.47908C1.11205 34.0004 0 32.8884 0 31.5213V16.6463C0 15.279 1.11205 14.167 2.47908 14.167H13.1041C14.4714 14.167 15.5834 15.279 15.5834 16.6463V31.5213C15.5834 32.8884 14.4714 34.0004 13.1041 34.0004ZM2.47908 16.292C2.28375 16.292 2.125 16.4507 2.125 16.6463V31.5213C2.125 31.7167 2.28375 31.8754 2.47908 31.8754H13.1041C13.2997 31.8754 13.4584 31.7167 13.4584 31.5213V16.6463C13.4584 16.4507 13.2997 16.292 13.1041 16.292H2.47908Z" fill="#BEBEBE"/>
<path d="M31.5223 34.0004H20.8973C19.53 34.0004 18.418 32.8884 18.418 31.5213V25.1463C18.418 23.779 19.53 22.667 20.8973 22.667H31.5223C32.8893 22.667 34.0014 23.779 34.0014 25.1463V31.5213C34.0014 32.8884 32.8893 34.0004 31.5223 34.0004ZM20.8973 24.792C20.7017 24.792 20.543 24.9507 20.543 25.1463V31.5213C20.543 31.7167 20.7017 31.8754 20.8973 31.8754H31.5223C31.7176 31.8754 31.8764 31.7167 31.8764 31.5213V25.1463C31.8764 24.9507 31.7176 24.792 31.5223 24.792H20.8973Z" fill="#BEBEBE"/>
<path d="M31.5223 19.8334H20.8973C19.53 19.8334 18.418 18.7214 18.418 17.3541V2.47908C18.418 1.11205 19.53 0 20.8973 0H31.5223C32.8893 0 34.0014 1.11205 34.0014 2.47908V17.3541C34.0014 18.7214 32.8893 19.8334 31.5223 19.8334ZM20.8973 2.125C20.7017 2.125 20.543 2.28375 20.543 2.47908V17.3541C20.543 17.5497 20.7017 17.7084 20.8973 17.7084H31.5223C31.7176 17.7084 31.8764 17.5497 31.8764 17.3541V2.47908C31.8764 2.28375 31.7176 2.125 31.5223 2.125H20.8973Z" fill="#BEBEBE"/>
</g>
<defs>
<clipPath id="clip0">
<rect width="34" height="34" fill="white"/>
</clipPath>
</defs>
</svg>
