<svg width="12" height="12" viewBox="0 0 12 12" fill="none" xmlns="http://www.w3.org/2000/svg">
<path d="M11.8534 11.1464L8.4409 7.73392C9.1019 6.91743 9.49989 5.87994 9.49989 4.74996C9.49989 2.13098 7.3689 0 4.74993 0C2.13096 0 0 2.13096 0 4.74993C0 7.3689 2.13098 9.49989 4.74996 9.49989C5.87994 9.49989 6.91743 9.1019 7.73392 8.4409L11.1464 11.8534C11.2439 11.9509 11.3719 11.9999 11.4999 11.9999C11.6279 11.9999 11.7559 11.9509 11.8534 11.8534C12.0489 11.6579 12.0489 11.3419 11.8534 11.1464ZM4.74996 8.49989C2.68197 8.49989 0.999997 6.81792 0.999997 4.74993C0.999997 2.68195 2.68197 0.999974 4.74996 0.999974C6.81794 0.999974 8.49991 2.68195 8.49991 4.74993C8.49991 6.81792 6.81792 8.49989 4.74996 8.49989Z" fill="white"/>
</svg>
