<svg width="28" height="34" viewBox="0 0 28 34" fill="none" xmlns="http://www.w3.org/2000/svg">
<path d="M20.9264 4.47807C20.2592 4.0421 19.5327 3.72418 18.8613 3.49435C18.5478 2.67098 18.0468 1.92998 17.4019 1.34951C16.4555 0.497517 15.2467 0.0283203 13.9983 0.0283203C12.7499 0.0283203 11.5412 0.497517 10.5947 1.34957C9.94982 1.93004 9.44874 2.67109 9.13525 3.4944C8.46385 3.72424 7.73742 4.0421 7.07016 4.47812H4.22243C2.42616 4.47812 0.964844 5.9395 0.964844 7.73572V30.7148C0.964844 32.511 2.42622 33.9724 4.22243 33.9724H23.7741C25.5704 33.9724 27.0317 32.511 27.0317 30.7148V7.73566C27.0317 5.93945 25.5704 4.47807 23.7741 4.47807H20.9264ZM11.223 4.8951C11.2505 4.75217 11.2874 4.61304 11.3321 4.47812C11.728 3.28272 12.772 2.42865 13.9983 2.42865C15.2245 2.42865 16.2685 3.28272 16.6645 4.47812C16.7092 4.6131 16.746 4.75217 16.7735 4.8951C16.8362 5.22064 17.0858 5.47658 17.4064 5.56102C18.57 5.86767 19.5186 6.32661 20.1239 6.8784C20.2193 6.96542 20.3065 7.05467 20.3843 7.14606C20.7682 7.59687 20.4516 8.29002 19.8594 8.29002H8.13714C7.54501 8.29002 7.22838 7.59693 7.6123 7.14606C7.69013 7.05461 7.77731 6.96542 7.87273 6.8784C8.47791 6.32656 9.42655 5.86762 10.5902 5.56102C10.9108 5.47653 11.1604 5.22058 11.223 4.8951ZM24.6314 7.73566V30.7147C24.6314 31.1882 24.2476 31.572 23.7741 31.572H4.22249C3.74903 31.572 3.36523 31.1882 3.36523 30.7147V7.73566C3.36523 7.26221 3.74903 6.8784 4.22249 6.8784H5.12877C5.10036 6.99735 5.07862 7.11821 5.06451 7.2408C4.99929 7.80542 5.09134 8.37777 5.33065 8.89582C5.56945 9.41281 5.94446 9.85293 6.41511 10.1687C6.92386 10.51 7.51935 10.6904 8.13719 10.6904H19.8595C20.4774 10.6904 21.0728 10.5099 21.5815 10.1687C22.0522 9.85293 22.4273 9.41276 22.666 8.89582C22.9053 8.37777 22.9974 7.80548 22.9321 7.2408C22.918 7.11821 22.8962 6.99735 22.8679 6.8784H23.7742C24.2476 6.8784 24.6314 7.26221 24.6314 7.73566Z" fill="#21B371"/>
<path d="M23.7748 34H4.2231C2.41143 34 0.9375 32.5261 0.9375 30.7143V7.73536C0.9375 5.92368 2.41143 4.44975 4.2231 4.44975H7.06248C7.65029 4.06661 8.34052 3.73766 9.11441 3.4718C9.43137 2.6453 9.93676 1.9043 10.5766 1.32836C11.5282 0.471774 12.7436 0 13.999 0C15.2543 0 16.4698 0.471774 17.4214 1.32842C18.0612 1.90435 18.5666 2.64535 18.8835 3.47185C19.6574 3.73772 20.3477 4.06667 20.9354 4.4498H23.7748C25.5865 4.4498 27.0604 5.92373 27.0604 7.73541V30.7144C27.0604 32.5261 25.5865 34 23.7748 34ZM4.22316 4.50578C2.44235 4.50578 0.993586 5.95455 0.993586 7.73536V30.7144C0.993586 32.4952 2.44235 33.944 4.22316 33.944H23.7748C25.5556 33.944 27.0044 32.4953 27.0044 30.7144V7.73536C27.0044 5.95455 25.5556 4.50578 23.7748 4.50578H20.9188L20.9118 4.50118C20.3233 4.11665 19.6306 3.78674 18.8529 3.52054L18.8405 3.51629L18.8358 3.50401C18.5224 2.68088 18.0203 1.9429 17.3838 1.37005C16.4426 0.522705 15.2405 0.0560302 13.999 0.0560302C12.7575 0.0560302 11.5554 0.522705 10.6141 1.37005C9.97772 1.9429 9.47564 2.68088 9.16215 3.50401L9.1575 3.51629L9.14506 3.52054C8.36747 3.78669 7.67478 4.11665 7.08618 4.50118L7.07918 4.50578H4.22316ZM23.7748 31.5997H4.22316C3.73502 31.5997 3.33788 31.2026 3.33788 30.7144V7.73536C3.33788 7.24722 3.73502 6.85008 4.22316 6.85008H5.16497L5.15673 6.88459C5.12815 7.00422 5.10675 7.12502 5.09302 7.24369C5.02842 7.80315 5.11958 8.37029 5.35676 8.88369C5.59343 9.39604 5.96502 9.83217 6.43141 10.145C6.93551 10.4832 7.52557 10.662 8.13792 10.662H19.8602C20.4725 10.662 21.0626 10.4832 21.5667 10.145C22.0331 9.83217 22.4047 9.39598 22.6413 8.88369C22.8785 8.37029 22.9697 7.80321 22.9051 7.24369C22.8914 7.12496 22.87 7.00416 22.8414 6.88459L22.8331 6.85008H23.7749C24.2631 6.85008 24.6602 7.24722 24.6602 7.73536V30.7144C24.6601 31.2026 24.2629 31.5997 23.7748 31.5997ZM4.22316 6.90611C3.7659 6.90611 3.39391 7.27809 3.39391 7.73536V30.7144C3.39391 31.1717 3.7659 31.5437 4.22316 31.5437H23.7748C24.232 31.5437 24.604 31.1717 24.604 30.7144V7.73536C24.604 7.27809 24.232 6.90611 23.7748 6.90611H22.9038C22.9289 7.01655 22.948 7.12777 22.9607 7.23725C23.0265 7.80702 22.9337 8.38447 22.6922 8.90723C22.4512 9.42887 22.0728 9.87296 21.5978 10.1916C21.0846 10.536 20.4836 10.7181 19.8601 10.7181H8.13786C7.51442 10.7181 6.9135 10.536 6.4002 10.1916C5.92524 9.87302 5.54687 9.42887 5.30588 8.90723C5.06439 8.38447 4.97155 7.80702 5.03739 7.2373C5.05005 7.12782 5.0691 7.0166 5.0942 6.90611H4.22316ZM19.8601 8.31773H8.13781C7.8539 8.31773 7.60373 8.15788 7.48489 7.90065C7.36526 7.64162 7.40617 7.34544 7.59163 7.12765C7.66867 7.03716 7.75714 6.94628 7.85452 6.85748C8.46469 6.30115 9.4084 5.84339 10.5837 5.53371C10.8964 5.45129 11.1368 5.19848 11.1961 4.88958C11.2231 4.74951 11.2601 4.60803 11.3062 4.46908C11.7161 3.23176 12.7982 2.40044 13.999 2.40044C15.1998 2.40044 16.2819 3.23176 16.6918 4.46908C16.7379 4.60809 16.7748 4.74957 16.8018 4.88958C16.8613 5.19853 17.1017 5.4514 17.4143 5.53376C18.5897 5.8435 19.5334 6.30126 20.1435 6.85753C20.2408 6.94623 20.3293 7.03716 20.4064 7.12771C20.5919 7.34555 20.6328 7.64173 20.5131 7.90076C20.3942 8.15788 20.144 8.31773 19.8601 8.31773ZM13.999 2.45636C12.8224 2.45636 11.7617 3.27227 11.3594 4.48662C11.3141 4.62327 11.2777 4.7624 11.2512 4.90012C11.1877 5.23002 10.9314 5.49998 10.598 5.58783C9.43143 5.89521 8.49578 6.34855 7.89228 6.89883C7.79658 6.98606 7.70985 7.07521 7.63432 7.16391C7.46315 7.36489 7.42539 7.63814 7.53576 7.87711C7.64536 8.11434 7.87603 8.2617 8.13781 8.2617H19.8601C20.122 8.2617 20.3526 8.11434 20.4622 7.87717C20.5726 7.63826 20.5348 7.36494 20.3637 7.16396C20.288 7.07515 20.2013 6.98595 20.1057 6.89888C19.5022 6.34867 18.5666 5.89533 17.4 5.58789C17.0667 5.50009 16.8103 5.23014 16.7468 4.90017C16.7203 4.76251 16.6839 4.62344 16.6386 4.48667C16.2363 3.27222 15.1756 2.45636 13.999 2.45636Z" fill="#21B371"/>
<path d="M13.9966 6.12219C14.6657 6.12219 15.2081 5.57982 15.2081 4.9107C15.2081 4.75813 15.1796 4.61229 15.1281 4.47781C14.9539 4.02257 14.5131 3.69922 13.9966 3.69922C13.4802 3.69922 13.0394 4.02257 12.8651 4.47781C12.8137 4.61223 12.7852 4.75813 12.7852 4.9107C12.7852 5.57982 13.3275 6.12219 13.9966 6.12219Z" fill="#21B371"/>
<path d="M13.9973 6.14984C13.3139 6.14984 12.7578 5.59379 12.7578 4.91034C12.7578 4.75833 12.7853 4.60929 12.8396 4.46748C13.022 3.991 13.4873 3.6709 13.9973 3.6709C14.5074 3.6709 14.9726 3.991 15.1549 4.46748C15.2093 4.60929 15.2368 4.75827 15.2368 4.91034C15.2368 5.59379 14.6808 6.14984 13.9973 6.14984ZM13.9973 3.72687C13.5104 3.72687 13.0661 4.03252 12.8919 4.48748C12.8401 4.62291 12.8138 4.76517 12.8138 4.91034C12.8138 5.56292 13.3447 6.09381 13.9973 6.09381C14.6498 6.09381 15.1808 5.56292 15.1808 4.91034C15.1808 4.76517 15.1545 4.62291 15.1026 4.48748C14.9285 4.03257 14.4843 3.72687 13.9973 3.72687Z" fill="#21B371"/>
<path d="M19.4047 15.8066L11.668 23.5432L8.59572 20.471C8.12697 20.0023 7.36709 20.0023 6.89839 20.471C6.4297 20.9396 6.4297 21.6995 6.89839 22.1683L10.8193 26.0892C11.0445 26.3143 11.3497 26.4407 11.668 26.4407C11.9862 26.4407 12.2915 26.3143 12.5166 26.0892L21.102 17.5039C21.5706 17.0352 21.5706 16.2753 21.102 15.8066C20.6332 15.3379 19.8734 15.3379 19.4047 15.8066Z" fill="#21B371"/>
<path d="M11.668 26.4685C11.34 26.4685 11.0315 26.3407 10.7995 26.1087L6.87861 22.1878C6.39984 21.7089 6.39984 20.9297 6.87861 20.4509C7.11058 20.2189 7.41902 20.0911 7.74708 20.0911C8.07514 20.0911 8.38353 20.2189 8.61555 20.4509L11.668 23.5033L19.3849 15.7865C19.6169 15.5545 19.9253 15.4268 20.2533 15.4268C20.5814 15.4268 20.8898 15.5545 21.1218 15.7865C21.6006 16.2654 21.6006 17.0445 21.1218 17.5234L12.5365 26.1087C12.3046 26.3407 11.9961 26.4685 11.668 26.4685ZM7.74708 20.1472C7.43398 20.1472 7.1396 20.2692 6.91823 20.4905C6.4613 20.9475 6.4613 21.6912 6.91823 22.1483L10.8392 26.0692C11.0605 26.2906 11.3549 26.4125 11.668 26.4125C11.9812 26.4125 12.2755 26.2906 12.4969 26.0692L21.0822 17.4838C21.5391 17.0268 21.5391 16.2832 21.0822 15.8261C20.8608 15.6048 20.5664 15.4828 20.2533 15.4828C19.9402 15.4828 19.6459 15.6048 19.4245 15.8261L11.668 23.5826L8.57593 20.4905C8.3545 20.2692 8.06018 20.1472 7.74708 20.1472Z" fill="#21B371"/>
</svg>
