<svg width="34" height="34" viewBox="0 0 34 34" fill="none" xmlns="http://www.w3.org/2000/svg">
<path d="M32.9813 20.7272L29.8562 18.2835C29.8973 17.9066 29.9298 17.4661 29.9298 17C29.9298 16.5339 29.8958 16.0934 29.8562 15.7165L32.9842 13.2714C33.565 12.8124 33.7251 11.9977 33.3539 11.3192L30.1041 5.69646C29.7485 5.04907 28.9509 4.75296 28.2242 5.02071L24.5366 6.50111C23.8311 5.99111 23.0902 5.56046 22.3237 5.21621L21.7627 1.30482C21.6707 0.561 21.0247 0 20.2611 0H13.7444C12.9808 0 12.3348 0.561 12.2442 1.29061L11.6818 5.21621C10.9394 5.55196 10.2099 5.97557 9.47179 6.50257L5.77429 5.01792C5.06739 4.74167 4.26268 5.03353 3.90854 5.68232L0.654433 11.3136C0.270539 11.9624 0.427789 12.8039 1.02279 13.2742L4.14793 15.7166C4.09833 16.1954 4.07429 16.6105 4.07429 17.0001C4.07429 17.3897 4.09839 17.8047 4.14514 18.2836L1.01714 20.7302C0.437683 21.1891 0.278972 22.0036 0.648722 22.6822L3.89858 28.305C4.25133 28.951 5.04747 29.2456 5.77847 28.9807L9.46608 27.5004C10.1716 28.009 10.9139 28.4396 11.6803 28.7852L12.2413 32.6952C12.3334 33.439 12.9794 34 13.743 34H20.2596C21.0232 34 21.6692 33.439 21.7599 32.7094L22.3223 28.7852C23.0646 28.4495 23.7942 28.0259 24.5323 27.4989L28.2298 28.9835C28.9339 29.2569 29.7414 28.9679 30.0955 28.3191L33.3624 22.668C33.7237 22.0051 33.565 21.1905 32.9813 20.7272ZM32.1242 21.9739L28.7497 27.666L24.6938 26.0369C24.4643 25.9448 24.2037 25.9803 24.0053 26.1275C23.127 26.7849 22.2784 27.2793 21.4086 27.6349C21.1762 27.7298 21.0105 27.9409 20.9751 28.1903L20.2597 32.5834L13.6481 32.5083L13.029 28.1916C12.9921 27.9423 12.8278 27.7313 12.5955 27.6363C11.6902 27.2651 10.819 26.7594 10.0044 26.1332C9.87826 26.0354 9.72526 25.9858 9.57226 25.9858C9.48301 25.9858 9.39376 26.0014 9.30737 26.0368L5.13526 27.6107L1.88541 21.988C1.85566 21.9327 1.8613 21.869 1.8953 21.8421L5.33355 19.1547C5.52905 19.0017 5.63105 18.7552 5.59991 18.5087C5.5248 17.9151 5.4908 17.4348 5.4908 16.9999C5.4908 16.565 5.5262 16.0862 5.59991 15.4912C5.63105 15.2433 5.52905 14.9982 5.33355 14.8452L1.87843 12.0275L5.25293 6.33536L9.30883 7.9645C9.53972 8.058 9.79897 8.0226 9.99872 7.87386C10.8756 7.21511 11.7256 6.72211 12.5955 6.3665C12.8278 6.27014 12.9921 6.05911 13.0276 5.81114L13.7444 1.41664L20.3574 1.49314L20.9751 5.81114C21.0119 6.0605 21.1762 6.27154 21.4086 6.3665C22.3124 6.73625 23.1837 7.242 23.9997 7.86961C24.1994 8.02261 24.4615 8.05946 24.6953 7.9645L28.8674 6.39061L32.1172 12.0134C32.147 12.0686 32.1414 12.131 32.1074 12.1579L28.6691 14.8453C28.4736 14.9983 28.3716 15.2434 28.4027 15.4913C28.4566 15.9219 28.5119 16.439 28.5119 17C28.5119 17.5624 28.4566 18.0781 28.4027 18.5088C28.3716 18.7553 28.4736 19.0017 28.6691 19.1548L32.1031 21.8407C32.1398 21.8705 32.1469 21.9342 32.1242 21.9739Z" fill="#BEBEBE"/>
<path d="M17.0013 9.91699C13.0956 9.91699 9.91797 13.0946 9.91797 17.0004C9.91797 20.9061 13.0956 24.0837 17.0013 24.0837C20.9071 24.0837 24.0847 20.9061 24.0847 17.0004C24.0847 13.0946 20.9071 9.91699 17.0013 9.91699ZM17.0013 22.667C13.8762 22.667 11.3347 20.1255 11.3347 17.0004C11.3347 13.8752 13.8762 11.3337 17.0013 11.3337C20.1265 11.3337 22.668 13.8752 22.668 17.0004C22.668 20.1255 20.1265 22.667 17.0013 22.667Z" fill="#BEBEBE"/>
</svg>
